<?xml version="1.0" encoding="utf-8"?>
<!-- Generator: Adobe Illustrator 26.1.0, SVG Export Plug-In . SVG Version: 6.00 Build 0)  -->
<svg version="1.1"  width="150px" height="69px"  id="Capa_1" xmlns="http://www.w3.org/2000/svg" xmlns:xlink="http://www.w3.org/1999/xlink" x="0px" y="0px"
	 viewBox="0 0 600.4 324.31" style="enable-background:new 0 0 600.4 324.31;" xml:space="preserve">
<style type="text/css">
	.st0{fill:#003C6E;}
	.st1{fill:#0096FF;}
</style>
<g>
	<g>
		<path class="st0" d="M517.31,277.88c-4.52,0-9.07,1.65-12.91,4.57c-1.74,1.32-1.99,3.37-0.59,5.08l0.85,1.04
			c1,1.23,2.58,1.45,3.83,0.47c2.57-2.02,5.61-3.38,8.99-3.38c6.46,0,11.04,4.19,11.04,9.78v2.27c-3.49-0.74-6.94-1.18-10.91-1.18
			c-10.17,0-17.67,4.97-17.67,13.53c0,8.42,6.2,14.18,14.97,14.18c5.15,0,10.3-2.09,13.62-5.41v0.79c0,2.36,1.22,3.62,3.54,3.62
			h1.31c2.27,0,3.4-1.27,3.4-3.62v-24.09C536.77,284.69,528.57,277.88,517.31,277.88z M528.52,311.7c-3.1,3.19-7.42,5.24-12.31,5.24
			c-4.71,0-7.94-2.84-7.94-6.9c0-4.28,4.1-6.9,9.56-6.9c3.45,0,7.24,0.39,10.69,0.92V311.7z M80.57,310.7
			c1.44,1.44,1.48,3.01,0.26,4.63c-4.67,6.42-11.35,8.95-17.94,8.95c-13.83,0-23.3-10.91-23.3-23.83c0-12.83,8.82-22.56,22.08-22.56
			c11.96,0,20.21,8.68,20.21,20.69c0,2.31-1.4,3.71-4.32,3.71H47.84c0.39,8.34,6.94,14.01,15.06,14.01c4.28,0,8.42-1.35,12.13-6.11
			c1.48-1.57,3.62-1.35,5.02,0.04L80.57,310.7z M48.23,294.9h24.53c-1-5.93-5.37-9.95-11.78-9.95
			C54.6,284.95,49.67,288.79,48.23,294.9 M133.36,263.61v56.03c0,2.31-1.22,3.58-3.58,3.58h-1.22c-2.36,0-3.45-1.27-3.45-3.58v-1
			c-3.75,3.67-8.68,5.67-14.18,5.67c-12.39,0-22.21-10.3-22.21-23.3c0-12.87,9.82-23.13,22.21-23.13c5.59,0,10.47,2.01,14.18,5.59
			v-19.86c0-2.4,1.09-3.62,3.45-3.62h1.22C132.14,259.99,133.36,261.21,133.36,263.61 M125.11,309.56v-16.93
			c-2.62-4.23-7.51-6.81-13.22-6.81c-8.29,0-14.84,6.72-14.84,15.19c0,8.64,6.55,15.32,14.84,15.32
			C117.65,316.33,122.49,313.71,125.11,309.56 M28.36,318.99c0-2.31-1.35-3.49-3.62-3.49H16.8v-32.95c0-2.31-1.18-3.58-3.54-3.58
			h-1.09c-2.36,0-3.67,1.27-3.67,3.58v32.95H3.62c-2.36,0-3.62,1.18-3.62,3.49v0.65c0,2.31,1.27,3.58,3.62,3.58h21.11
			c2.27,0,3.62-1.27,3.62-3.58v-0.65 M20.16,285.87c0,4.56,3.49,8.07,8.12,8.07c4.5,0,7.99-3.52,7.99-8.07
			c0-4.56-3.49-8.03-7.99-8.03C23.65,277.84,20.16,281.31,20.16,285.87 M444.44,315.5h-6.62v-32.95c0-2.53-1.09-3.58-3.62-3.58
			h-10.12c-2.23,0-3.58,1.22-3.58,3.49v0.7c0,2.27,1.35,3.54,3.58,3.54h5.46v28.8h-6.58c-2.27,0-3.62,1.18-3.62,3.49v0.65
			c0,2.31,1.35,3.58,3.62,3.58h21.49c2.36,0,3.67-1.27,3.67-3.58v-0.65C448.11,316.68,446.8,315.5,444.44,315.5 M398.39,285.87
			c0,4.56,3.49,8.07,8.12,8.07c4.49,0,7.99-3.52,7.99-8.07c0-4.56-3.49-8.03-7.99-8.03C401.88,277.84,398.39,281.31,398.39,285.87
			 M275.05,261.42l-0.68-1.01c-1.31-1.96-2.94-2.18-4.93-0.84l-10.51,7.06c-1.99,1.34-2.4,2.93-1.08,4.88l0.68,1.01
			c1.31,1.96,3.01,2.29,5,0.95l10.51-7.06C276.03,265.07,276.37,263.38,275.05,261.42 M208.19,310.7c1.44,1.44,1.48,3.01,0.26,4.63
			c-4.67,6.42-11.35,8.95-17.94,8.95c-13.83,0-23.3-10.91-23.3-23.83c0-12.83,8.82-22.56,22.08-22.56
			c11.96,0,20.21,8.68,20.21,20.69c0,2.31-1.4,3.71-4.32,3.71h-29.72c0.39,8.34,6.94,14.01,15.06,14.01c4.28,0,8.42-1.35,12.13-6.11
			c1.48-1.57,3.62-1.35,5.02,0.04L208.19,310.7z M175.85,294.9h24.53c-1-5.93-5.37-9.95-11.78-9.95
			C182.22,284.95,177.29,288.79,175.85,294.9 M285.1,310.7c1.44,1.44,1.48,3.01,0.26,4.63c-4.67,6.42-11.35,8.95-17.94,8.95
			c-13.83,0-23.3-10.91-23.3-23.83c0-12.83,8.82-22.56,22.08-22.56c11.96,0,20.21,8.68,20.21,20.69c0,2.31-1.4,3.71-4.32,3.71
			h-29.72c0.39,8.34,6.94,14.01,15.06,14.01c4.28,0,8.42-1.35,12.13-6.11c1.48-1.57,3.62-1.35,5.02,0.04L285.1,310.7z M252.76,294.9
			h24.53c-1-5.93-5.37-9.95-11.78-9.95C259.13,284.95,254.2,288.79,252.76,294.9 M294.15,300.92c0,13.01,10.17,23.39,23.3,23.39
			c8.47,0,15.45-3.93,19.07-10.65c1.09-1.83,0.57-3.4-1.44-4.63l-1.09-0.65c-1.79-1.05-3.58-0.31-4.54,1
			c-2.44,4.41-6.72,7.16-12.22,7.16c-8.51,0-14.71-6.72-14.71-15.62c0-8.6,6.2-15.27,14.45-15.27c5.41,0,9.08,2.36,11.91,6.07
			c1,1.18,2.97,1.7,4.58,0.57l0.92-0.7c1.75-1.22,2.14-2.92,1.18-4.63c-3.54-5.8-10.34-9.08-18.11-9.08
			C304.27,277.88,294.15,288.18,294.15,300.92 M451.18,300.92c0,13.01,10.17,23.39,23.3,23.39c8.47,0,15.45-3.93,19.07-10.65
			c1.09-1.83,0.57-3.4-1.44-4.63l-1.09-0.65c-1.79-1.05-3.58-0.31-4.54,1c-2.44,4.41-6.72,7.16-12.22,7.16
			c-8.51,0-14.71-6.72-14.71-15.62c0-8.6,6.2-15.27,14.45-15.27c5.41,0,9.08,2.36,11.91,6.07c1,1.18,2.97,1.7,4.58,0.57l0.92-0.7
			c1.75-1.22,2.14-2.92,1.18-4.63c-3.54-5.8-10.34-9.08-18.11-9.08C461.3,277.88,451.18,288.18,451.18,300.92 M406.58,318.99
			c0-2.31-1.35-3.49-3.62-3.49h-7.93v-32.95c0-2.31-1.18-3.58-3.53-3.58h-1.09c-2.36,0-3.67,1.27-3.67,3.58v32.95h-4.89
			c-2.36,0-3.62,1.18-3.62,3.49v0.65c0,2.31,1.27,3.58,3.62,3.58h21.11c2.27,0,3.62-1.27,3.62-3.58L406.58,318.99 M372.89,282.53
			c0-2.36-1.22-3.58-3.54-3.58h-12.79v-8.86c0-2.36-1.22-3.62-3.58-3.62h-1.05c-2.36,0-3.62,1.27-3.62,3.62v8.86h-4.93
			c-2.31,0-3.58,1.22-3.58,3.58v0.48c0,2.36,1.27,3.67,3.58,3.67h4.93v21.17c0,9.56,5.59,16.41,15.58,16.41
			c1.96,0,4.1-0.26,6.11-0.87c1.92-0.39,2.71-1.88,2.4-3.58l-0.35-2.01c-0.31-1.83-1.62-2.18-3.4-1.96
			c-1.44,0.48-2.88,0.65-4.01,0.65c-5.02,0-8.07-3.8-8.07-9.25v-20.55h12.79c2.31,0,3.54-1.35,3.54-3.62L372.89,282.53
			 M238.23,315.5h-6.62v-51.93c0-2.53-1.09-3.58-3.62-3.58h-10.12c-2.23,0-3.58,1.22-3.58,3.49v0.7c0,2.27,1.35,3.54,3.58,3.54h5.46
			v47.79h-6.58c-2.27,0-3.62,1.18-3.62,3.49v0.65c0,2.31,1.35,3.58,3.62,3.58h21.49c2.36,0,3.67-1.27,3.67-3.58V319
			C241.9,316.68,240.59,315.5,238.23,315.5"/>
		<path class="st1" d="M432.88,274.19c4.49,0,7.98-3.51,7.98-8.07c0-4.55-3.49-8.02-7.98-8.02c-4.62,0-8.11,3.47-8.11,8.02
			C424.77,270.68,428.25,274.19,432.88,274.19"/>
	</g>
	<g>
		<path class="st0" d="M120.51,155.93c4.23,4.23,4.36,8.85,0.77,13.6c-13.73,18.87-33.37,26.31-52.75,26.31
			C27.85,195.84,0,163.75,0,125.77c0-37.73,25.92-66.35,64.94-66.35c35.16,0,59.42,25.54,59.42,60.83c0,6.8-4.11,10.91-12.7,10.91
			h-87.4c1.15,24.51,20.4,41.2,44.27,41.2c12.58,0,24.77-3.98,35.68-17.97c4.36-4.62,10.65-3.98,14.76,0.13L120.51,155.93z
			 M25.41,109.47h72.12c-2.95-17.45-15.78-29.26-34.65-29.26C44.15,80.21,29.65,91.5,25.41,109.47z"/>
		<path class="st0" d="M137.14,167.22c-1.92-4.23-1.54-7.44,3.08-10.52l4.75-3.21c5.01-3.34,8.73-1.8,11.68,2.82
			c6.42,11.04,18.99,19.25,33.11,19.25c12.58,0,24.26-6.29,24.26-18.22c0-14.25-13.22-18.48-29.65-22.2
			c-27.85-6.03-43.12-16.68-43.12-39.4c0-22.2,18.61-36.58,44.92-36.58c17.45,0,33.24,8.09,42.74,18.87
			c3.08,3.34,2.95,7.57-0.77,11.55l-4.11,5.01c-2.95,3.34-7.83,3.08-12.19-0.77c-5.77-6.67-15.27-14.24-27.59-14.24
			c-11.17,0-19.89,5.65-19.89,15.14c0,11.94,12.06,15.66,29.77,19.38c25.03,5.26,42.99,16.3,42.99,42.35
			c0,24.77-21.3,39.4-49.54,39.4C165.24,195.84,145.22,184.67,137.14,167.22z"/>
		<path class="st0" d="M348.2,180.31v1.93c0,6.8-3.85,10.52-10.78,10.52h-77.13c-6.67,0-10.65-3.72-10.65-10.52v-1.93
			c0-6.8,3.98-10.27,10.65-10.27h26.31v-84.7h-16.04c-6.55,0-10.52-3.72-10.52-10.39V72.9c0-6.67,3.98-10.27,10.52-10.27h29.77
			c7.44,0,10.65,3.08,10.65,10.52v96.89h26.44C344.35,170.04,348.2,173.51,348.2,180.31z M317.01,20.53
			c0,11.42-9.37,20.79-20.79,20.79s-20.79-9.37-20.79-20.79C275.43,9.24,284.8,0,296.22,0S317.01,9.24,317.01,20.53z"/>
		<path class="st0" d="M349.81,127.18c0-37.47,29.77-67.76,68.53-67.76c38.89,0,68.66,30.29,68.66,67.76
			c0,38.24-29.9,68.79-68.66,68.79C379.71,195.97,349.81,165.42,349.81,127.18z M374.45,127.18c0,26.56,18.48,45.81,43.89,45.81
			c25.54,0,44.02-19.25,44.02-45.81c0-25.54-18.48-45.05-44.02-45.05C392.93,82.13,374.45,101.64,374.45,127.18z"/>
		<path class="st0" d="M557.41,114.09c-17.71-3.72-29.77-7.44-29.77-19.38c0-9.5,8.73-15.14,19.89-15.14c2.63,0,5.14,0.35,7.5,0.96
			c3.51,0.91,7.23-0.33,9.51-3.14l2.98-3.67c3.69-4.55,1.42-11.43-4.26-12.85c-4.41-1.1-9.05-1.7-13.8-1.7
			c-26.31,0-44.92,14.37-44.92,36.58c0,22.71,15.27,33.37,43.12,39.4c16.43,3.72,29.65,7.96,29.65,22.2
			c0,11.93-11.68,18.22-24.26,18.22c-14.12,0-26.69-8.21-33.11-19.25c-2.95-4.62-6.67-6.16-11.68-2.82l-4.75,3.21
			c-4.62,3.08-5,6.29-3.08,10.52c8.08,17.45,28.11,28.62,50.44,28.62c28.23,0,49.54-14.63,49.54-39.4
			C600.4,130.39,582.43,119.35,557.41,114.09z"/>
		<circle class="st1" cx="583.17" cy="85.35" r="11.69"/>
	</g>
</g>
</svg>
